<svg width="24" height="24" viewBox="0 0 24 24" fill="none" xmlns="http://www.w3.org/2000/svg">
<path d="M16.1501 11L13.3001 8.15002C13.1001 7.95002 13.0041 7.71669 13.0121 7.45002C13.0201 7.18336 13.1161 6.95002 13.3001 6.75002C13.5001 6.55002 13.7374 6.44569 14.0121 6.43702C14.2868 6.42836 14.5244 6.52436 14.7251 6.72502L19.3001 11.3C19.5001 11.5 19.6001 11.7334 19.6001 12C19.6001 12.2667 19.5001 12.5 19.3001 12.7L14.7251 17.275C14.5251 17.475 14.2874 17.5707 14.0121 17.562C13.7368 17.5534 13.4994 17.4494 13.3001 17.25C13.1168 17.05 13.0208 16.8167 13.0121 16.55C13.0034 16.2834 13.0994 16.05 13.3001 15.85L16.1501 13L5.0001 13C4.71676 13 4.4791 12.904 4.2871 12.712C4.0951 12.52 3.99943 12.2827 4.0001 12C4.00076 11.7174 4.09676 11.4797 4.2881 11.287C4.47943 11.0944 4.71676 10.9987 5.0001 11L16.1501 11Z" fill="black"/>
</svg>
