<svg width="1184" height="304" viewBox="0 0 1184 304" fill="none" xmlns="http://www.w3.org/2000/svg">
<rect x="555.41" y="0.5" width="36.572" height="122.882" rx="7.5" stroke="#E0E0E0"/>
<rect x="493.753" y="0.5" width="36.572" height="104.952" rx="7.5" stroke="#E0E0E0"/>
<rect x="432.096" y="0.5" width="36.572" height="148.147" rx="7.5" stroke="#E0E0E0"/>
<rect x="370.44" y="0.5" width="36.572" height="184.008" rx="7.5" stroke="#E0E0E0"/>
<rect x="308.783" y="0.5" width="36.572" height="154.668" rx="7.5" stroke="#E0E0E0"/>
<rect x="247.127" y="0.5" width="36.572" height="184.008" rx="7.5" stroke="#E0E0E0"/>
<rect x="185.47" y="0.5" width="36.572" height="229.649" rx="7.5" stroke="#E0E0E0"/>
<rect x="123.813" y="0.5" width="36.572" height="207.643" rx="7.5" stroke="#E0E0E0"/>
<rect x="62.1566" y="0.5" width="36.572" height="256.544" rx="7.5" stroke="#E0E0E0"/>
<rect x="0.5" y="0.5" width="36.572" height="303" rx="7.5" stroke="#E0E0E0"/>
<rect x="-0.5" y="0.5" width="36.572" height="104.952" rx="7.5" transform="matrix(-1 0 0 1 689.747 0)" stroke="#E0E0E0"/>
<rect x="-0.5" y="0.5" width="36.572" height="94.3566" rx="7.5" transform="matrix(-1 0 0 1 640.614 0)" stroke="#E0E0E0"/>
<rect x="-0.5" y="0.5" width="36.572" height="148.147" rx="7.5" transform="matrix(-1 0 0 1 751.404 0)" stroke="#E0E0E0"/>
<rect x="-0.5" y="0.5" width="36.572" height="184.008" rx="7.5" transform="matrix(-1 0 0 1 813.06 0)" stroke="#E0E0E0"/>
<rect x="-0.5" y="0.5" width="36.572" height="154.668" rx="7.5" transform="matrix(-1 0 0 1 874.717 0)" stroke="#E0E0E0"/>
<rect x="-0.5" y="0.5" width="36.572" height="184.008" rx="7.5" transform="matrix(-1 0 0 1 936.373 0)" stroke="#E0E0E0"/>
<rect x="-0.5" y="0.5" width="36.572" height="229.649" rx="7.5" transform="matrix(-1 0 0 1 998.03 0)" stroke="#E0E0E0"/>
<rect x="-0.5" y="0.5" width="36.572" height="207.643" rx="7.5" transform="matrix(-1 0 0 1 1059.69 0)" stroke="#E0E0E0"/>
<rect x="-0.5" y="0.5" width="36.572" height="256.544" rx="7.5" transform="matrix(-1 0 0 1 1121.34 0)" stroke="#E0E0E0"/>
<rect x="-0.5" y="0.5" width="36.572" height="303" rx="7.5" transform="matrix(-1 0 0 1 1183 0)" stroke="#E0E0E0"/>
</svg>
