<svg width="24" height="23" viewBox="0 0 24 23" fill="none" xmlns="http://www.w3.org/2000/svg">
<path d="M12 20.125C13.78 20.125 15.5201 19.6192 17.0001 18.6714C18.4802 17.7237 19.6337 16.3767 20.3149 14.8006C20.9961 13.2246 21.1743 11.4904 20.8271 9.81735C20.4798 8.14426 19.6226 6.60744 18.364 5.40121C17.1053 4.19498 15.5016 3.37353 13.7558 3.04073C12.01 2.70793 10.2004 2.87874 8.55585 3.53154C6.91131 4.18435 5.50571 5.28984 4.51677 6.70821C3.52784 8.12658 3 9.79414 3 11.5C3 12.926 3.36 14.2696 4 15.455L3 20.125L7.873 19.1667C9.109 19.779 10.513 20.125 12 20.125Z" stroke="black" stroke-width="1.5" stroke-linecap="round" stroke-linejoin="round"/>
</svg>
