<?xml version="1.0" encoding="UTF-8"?>
<svg id="Camada_2" data-name="Camada 2" xmlns="http://www.w3.org/2000/svg" viewBox="0 0 89.91 68.5">
  <defs>
    <style>
      .cls-1 {
        stroke-linecap: round;
        stroke-linejoin: round;
      }

      .cls-1, .cls-2, .cls-3 {
        stroke: #1d1d1b;
      }

      .cls-1, .cls-3 {
        fill: none;
        stroke-width: 2px;
      }

      .cls-2 {
        fill: #1d1d1b;
      }

      .cls-2, .cls-3 {
        stroke-miterlimit: 10;
      }
    </style>
  </defs>
  <g id="Camada_1-2" data-name="Camada 1">
    <path class="cls-3" d="M70.9,54.23h10.06c4.39,0,7.94-3.56,7.94-7.94V8.94c0-4.39-3.56-7.94-7.94-7.94H8.94C4.56,1,1,4.56,1,8.94v57.58c0,.87,1.05,1.3,1.66.68l12.74-12.97s35.51,0,37.13,0c6.26,0,6.39-2.2,6.39-2.2"/>
    <circle class="cls-2" cx="22.72" cy="23.02" r="8.75"/>
    <path class="cls-1" d="M16.94,44.7s3.93,3.93,11.58,4.76,11.83-4.49,23.42.14,18.97,4.63,18.97,4.63"/>
    <circle class="cls-2" cx="80.68" cy="11.69" r="2.58"/>
    <circle class="cls-2" cx="80.68" cy="19.73" r="2.58"/>
  </g>
</svg>