<svg width="24" height="24" viewBox="0 0 24 24" fill="none" xmlns="http://www.w3.org/2000/svg">
<path fill-rule="evenodd" clip-rule="evenodd" d="M10.03 6.47C10.1704 6.61062 10.2493 6.80125 10.2493 7C10.2493 7.19875 10.1704 7.38937 10.03 7.53L6.30995 11.25H14.5C15.453 11.25 16.867 11.53 18.063 12.391C19.298 13.281 20.25 14.756 20.25 17C20.25 17.1989 20.1709 17.3897 20.0303 17.5303C19.8896 17.671 19.6989 17.75 19.5 17.75C19.301 17.75 19.1103 17.671 18.9696 17.5303C18.829 17.3897 18.75 17.1989 18.75 17C18.75 15.244 18.035 14.22 17.187 13.609C16.3 12.97 15.213 12.75 14.5 12.75H6.30995L10.03 16.47C10.1036 16.5387 10.1627 16.6215 10.2037 16.7135C10.2447 16.8055 10.2668 16.9048 10.2685 17.0055C10.2703 17.1062 10.2518 17.2062 10.2141 17.2996C10.1764 17.393 10.1202 17.4778 10.049 17.549C9.97777 17.6203 9.89294 17.6764 9.79955 17.7141C9.70616 17.7518 9.60613 17.7704 9.50543 17.7686C9.40473 17.7668 9.30541 17.7448 9.21341 17.7038C9.12141 17.6628 9.03861 17.6037 8.96995 17.53L3.96995 12.53C3.8295 12.3894 3.75061 12.1987 3.75061 12C3.75061 11.8012 3.8295 11.6106 3.96995 11.47L8.96995 6.47C9.11058 6.32955 9.3012 6.25066 9.49995 6.25066C9.6987 6.25066 9.88932 6.32955 10.03 6.47Z" fill="black"/>
</svg>
